<svg width="326" height="304" viewBox="0 0 326 304" fill="none" xmlns="http://www.w3.org/2000/svg">
<g filter="url(#filter0_d)">
<path d="M93.6173 96.6954C52.5094 87.5093 32.4149 108.85 24.915 127.85C-14.8858 228.68 102.191 273.857 193.915 254.35C235.315 245.545 290.415 195.85 302.915 149.35C306.415 112.85 299.915 99.5408 280.415 96.6954C260.915 93.8499 248.415 108.85 211.915 118.35C193.325 123.188 145.002 108.178 93.6173 96.6954Z" fill="white"/>
</g>
<mask id="mask0" mask-type="alpha" maskUnits="userSpaceOnUse" x="0" y="0" width="304" height="304">
<circle cx="152" cy="152" r="152" fill="#C4C4C4"/>
</mask>
<g mask="url(#mask0)">
<path d="M56.5858 300.914C57.3281 288.168 67.5416 280.711 72.6507 269.807C79.8595 254.428 66.8841 241.453 83.7054 226.555C100.527 211.656 91.8757 204.928 101.967 192.825C112.058 180.721 132.553 184.36 132.553 184.36H174.547C174.547 184.36 195.05 180.719 205.133 192.825C215.217 204.93 206.576 211.656 223.395 226.555C240.214 241.453 227.241 254.428 234.447 269.805C237.48 276.274 242.401 281.22 246.103 287.223C263.181 314.903 237.117 349.34 207.481 349.34C207.481 349.34 99.6807 349.319 99.6218 349.34C79.6356 356.19 65.2156 353.681 68.0176 335.884C70.0042 323.316 55.8576 313.444 56.5858 300.914Z" fill="#173A82"/>
<path d="M153.858 163.259L174.033 160.042V205.258C174.033 223.218 155.284 227.471 153.858 227.771H153.811V227.752C152.385 227.452 133.684 223.208 133.684 205.249V160.042L153.858 163.259Z" fill="#F9D3B7"/>
<path d="M153.86 135.161L133.69 131.947V177.163C133.629 180.707 134.471 184.209 136.138 187.337C137.805 190.466 140.241 193.118 143.217 195.045C147.993 198.226 153.672 199.774 159.402 199.456C164.587 199.246 171.48 196.791 173.603 192.059C175.083 188.76 174.039 183.594 174.039 177.163V131.947L153.86 135.161Z" fill="#F7B7A1"/>
<path d="M191.36 125.467C191.36 125.467 191.648 121.854 198.701 120.438C205.754 119.021 208.347 143.271 195.451 145.858C182.556 148.446 184.017 130.493 191.36 125.467Z" fill="#F4C19F"/>
<path d="M125.678 138.644C125.678 138.644 124.028 135.423 116.958 136.839C109.889 138.256 116.871 161.626 129.764 159.038C142.657 156.451 134.397 140.45 125.678 138.644Z" fill="#F4C19F"/>
<path d="M168.589 185.01C177.963 183.101 186.2 177.56 191.501 169.597C196.803 161.634 198.737 151.896 196.882 142.512L191.514 115.757C189.602 106.385 184.058 98.1497 176.093 92.8511C168.129 87.5525 158.392 85.6209 149.008 87.4783C139.639 89.3908 131.407 94.9321 126.109 102.893C120.81 110.853 118.877 120.586 120.729 129.968L126.097 156.717C128.007 166.089 133.548 174.325 141.509 179.626C149.47 184.927 159.205 186.863 168.589 185.01Z" fill="#F9D3B7"/>
<path d="M130.979 153.743C128.785 142.813 142.967 143.572 159.602 140.233C176.237 136.893 189.026 130.724 191.22 141.647C193.414 152.569 177.733 144.354 161.098 147.691C144.463 151.028 133.173 164.673 130.979 153.743Z" fill="#F7B7A1"/>
<path d="M107.745 128.348C117.087 115.592 111.2 116.584 112.694 103.882C114.188 91.1804 127.715 80.3706 127.715 80.3706C127.715 80.3706 114.421 69.6246 123.944 61.6381C126.451 59.3398 129.428 57.6144 132.669 56.5816C135.909 55.5488 139.335 55.2333 142.71 55.6571C142.71 55.6571 151.429 39.6724 167.81 49.4121C181.876 57.7733 174.316 68.6207 168.753 73.685C173.784 75.5703 184.165 80.3329 188.833 88.6069C195.116 99.7465 189.672 101.966 203.208 110.132C216.745 118.298 189.493 131.294 196.803 141.239C204.113 151.184 199.16 156.743 199.16 156.743C199.594 154.414 199.253 152.006 198.189 149.888C197.125 147.771 195.397 146.061 193.268 145.019C185.727 141.484 183.01 135.527 189.441 123.435C195.872 111.343 150.732 122.563 138.527 97.6822C136.866 125.346 114.98 126.638 125.58 135.312C136.18 143.987 135.97 150.517 130.378 156.701C128.815 158.482 127.879 160.727 127.714 163.092C127.548 165.456 128.162 167.809 129.461 169.791C129.461 169.791 122.743 166.584 125.648 154.58C128.554 142.575 98.4061 141.107 107.745 128.348Z" fill="#081E29"/>
<path d="M177.725 127.052C175.455 127.6 173.099 127.691 170.794 127.322C168.488 126.953 166.278 126.13 164.293 124.901" stroke="#081E29" stroke-width="1.132" stroke-linecap="round" stroke-linejoin="round"/>
<path d="M138.188 134.987C140.496 134.616 142.707 133.791 144.694 132.56C146.68 131.329 148.403 129.715 149.762 127.814" stroke="#081E29" stroke-width="1.132" stroke-linecap="round" stroke-linejoin="round"/>
<path d="M148.56 140.266C148.667 140.799 148.613 141.352 148.406 141.855C148.198 142.358 147.846 142.787 147.395 143.09C146.943 143.393 146.411 143.555 145.867 143.556C145.324 143.557 144.792 143.396 144.339 143.095C143.886 142.793 143.533 142.364 143.324 141.862C143.115 141.36 143.06 140.807 143.165 140.274C143.27 139.74 143.531 139.25 143.915 138.865C144.299 138.479 144.789 138.217 145.322 138.109C145.676 138.038 146.041 138.038 146.395 138.108C146.75 138.177 147.087 138.317 147.388 138.517C147.688 138.717 147.947 138.975 148.148 139.275C148.349 139.575 148.489 139.912 148.56 140.266Z" fill="#081E29"/>
<path d="M175.588 134.846C175.695 135.379 175.642 135.932 175.435 136.435C175.228 136.938 174.876 137.368 174.424 137.671C173.973 137.975 173.441 138.137 172.897 138.138C172.354 138.139 171.821 137.979 171.369 137.678C170.916 137.376 170.562 136.948 170.353 136.446C170.144 135.943 170.088 135.391 170.193 134.857C170.298 134.323 170.559 133.833 170.943 133.447C171.327 133.062 171.817 132.799 172.35 132.692C173.065 132.549 173.807 132.695 174.414 133.099C175.021 133.503 175.444 134.131 175.588 134.846Z" fill="#081E29"/>
<path d="M160.319 160.702C160.206 159.78 160.164 158.85 160.194 157.921C160.125 157.205 160.325 156.489 160.754 155.911C161.183 155.333 161.811 154.935 162.517 154.793C163.222 154.652 163.955 154.777 164.574 155.144C165.192 155.512 165.653 156.096 165.866 156.783C166.252 157.628 166.572 158.502 166.823 159.396C167.187 160.62 167.259 161.911 167.033 163.167C166.976 163.789 166.72 164.376 166.303 164.841C165.885 165.306 165.329 165.623 164.716 165.746C164.104 165.869 163.468 165.791 162.904 165.523C162.339 165.255 161.877 164.813 161.584 164.261C160.889 163.19 160.456 161.971 160.319 160.702Z" fill="#081E29"/>
<path d="M158.104 132.767C158.104 132.767 167.874 147.519 161.327 148.832" stroke="#081E29" stroke-width="0.566" stroke-linecap="round" stroke-linejoin="round"/>
<path d="M183.114 244.54L175.4 199.548C175.4 199.548 169.554 195.455 170.006 184.621C170.459 173.788 167.273 168.719 164.056 164.991C161.683 162.724 166.012 158.392 173.324 174.629C171.043 160.881 164.32 158.76 165.147 157.082C165.974 155.404 172.386 157.634 176.376 169.827C174.769 157.664 167.138 153.477 168.279 151.681C169.961 149.053 180.17 158.546 180.396 170.967C182.407 158.557 173.871 153.347 175.32 150.413C176.77 147.479 187.395 160.275 185.543 178.013C188.706 172.412 184.568 164.527 187.24 163.553C189.912 162.58 194.746 180.561 185.562 197.354C190.93 213.614 201.86 238.264 201.86 238.264L183.114 244.54Z" fill="#F9C4A0"/>
<path d="M222.836 344.434C222.836 344.434 243.492 334.583 236.74 306.276C230.266 279.175 232.611 234.381 203.425 223.449C202.334 223.044 201.16 222.916 200.009 223.078C198.857 223.239 197.763 223.685 196.826 224.375C192.044 227.576 186.442 229.335 180.688 229.441C179.36 229.504 178.078 229.952 177 230.731C175.922 231.509 175.094 232.585 174.618 233.827C171.979 240.649 168.236 255.159 172.521 276.276C178.648 306.485 169.457 340.743 190.85 346.536C212.243 352.328 222.836 344.434 222.836 344.434Z" fill="#173A82"/>
<path d="M135.273 174.389C135.273 174.389 148.612 189.942 168.586 185.01" stroke="#081E29" stroke-width="0.566" stroke-linecap="round" stroke-linejoin="round"/>
</g>
<path d="M209.492 69.2062C213.196 69.2062 216.198 66.2038 216.198 62.5002C216.198 58.7966 213.196 55.7942 209.492 55.7942C205.789 55.7942 202.786 58.7966 202.786 62.5002C202.786 66.2038 205.789 69.2062 209.492 69.2062Z" fill="#F19B1F"/>
<path d="M210.609 59.706C210.917 59.706 211.167 59.4558 211.167 59.1472C211.167 58.8385 210.917 58.5883 210.609 58.5883C210.3 58.5883 210.05 58.8385 210.05 59.1472C210.05 59.4558 210.3 59.706 210.609 59.706Z" fill="#F8E9AF"/>
<path d="M207.256 65.2944C207.565 65.2944 207.815 65.0442 207.815 64.7355C207.815 64.4269 207.565 64.1767 207.256 64.1767C206.947 64.1767 206.697 64.4269 206.697 64.7355C206.697 65.0442 206.947 65.2944 207.256 65.2944Z" fill="#F8E9AF"/>
<path d="M207.256 61.9414C207.874 61.9414 208.374 61.441 208.374 60.8237C208.374 60.2064 207.874 59.706 207.256 59.706C206.639 59.706 206.139 60.2064 206.139 60.8237C206.139 61.441 206.639 61.9414 207.256 61.9414Z" fill="#F8E9AF"/>
<path d="M211.726 65.8532C212.652 65.8532 213.403 65.1026 213.403 64.1767C213.403 63.2508 212.652 62.5002 211.726 62.5002C210.8 62.5002 210.05 63.2508 210.05 64.1767C210.05 65.1026 210.8 65.8532 211.726 65.8532Z" fill="#F8E9AF"/>
<path d="M209.499 56.353C209.191 56.353 208.94 56.1028 208.94 55.7942V53.5588C208.94 53.2502 209.191 53 209.499 53C209.808 53 210.058 53.2502 210.058 53.5588V55.7942C210.058 56.1028 209.808 56.353 209.499 56.353Z" fill="#E47E25"/>
<path d="M206.148 57.251C205.948 57.2511 205.763 57.1446 205.663 56.9715L204.545 55.0363C204.444 54.8633 204.443 54.6492 204.543 54.4753C204.643 54.3014 204.828 54.1944 205.029 54.1948C205.229 54.1953 205.414 54.3031 205.513 54.4775L206.631 56.4127C206.731 56.5855 206.731 56.7984 206.631 56.9713C206.532 57.1442 206.347 57.2507 206.148 57.251Z" fill="#E47E25"/>
<path d="M203.692 59.7059C203.594 59.7059 203.497 59.6801 203.412 59.6311L201.477 58.5134C201.303 58.4143 201.195 58.2293 201.194 58.0288C201.194 57.8283 201.301 57.6429 201.475 57.543C201.649 57.4431 201.863 57.4441 202.036 57.5455L203.971 58.6632C204.19 58.7896 204.297 59.0474 204.231 59.2917C204.166 59.5361 203.945 59.7059 203.692 59.7059Z" fill="#E47E25"/>
<path d="M202.794 63.0591H200.559C200.25 63.0591 200 62.8089 200 62.5002C200 62.1916 200.25 61.9414 200.559 61.9414H202.794C203.103 61.9414 203.353 62.1916 203.353 62.5002C203.353 62.8089 203.103 63.0591 202.794 63.0591Z" fill="#E47E25"/>
<path d="M201.757 67.5297C201.504 67.5297 201.283 67.3598 201.217 67.1155C201.152 66.8712 201.259 66.6134 201.478 66.4869L203.413 65.3692C203.586 65.2678 203.8 65.2668 203.974 65.3667C204.148 65.4666 204.255 65.652 204.254 65.8525C204.254 66.0531 204.146 66.238 203.972 66.3371L202.037 67.4548C201.952 67.5038 201.855 67.5297 201.757 67.5297Z" fill="#E47E25"/>
<path d="M205.029 70.8022C204.829 70.802 204.645 70.6954 204.545 70.5226C204.446 70.3497 204.446 70.1368 204.546 69.964L205.663 68.0287C205.762 67.8544 205.947 67.7465 206.148 67.7461C206.348 67.7457 206.534 67.8527 206.634 68.0266C206.734 68.2005 206.733 68.4146 206.631 68.5876L205.513 70.5228C205.414 70.6959 205.229 70.8024 205.029 70.8022Z" fill="#E47E25"/>
<path d="M209.499 72.0005C209.191 72.0005 208.94 71.7503 208.94 71.4416V69.2063C208.94 68.8977 209.191 68.6475 209.499 68.6475C209.808 68.6475 210.058 68.8977 210.058 69.2063V71.4416C210.058 71.7503 209.808 72.0005 209.499 72.0005Z" fill="#E47E25"/>
<path d="M213.971 70.8022C213.771 70.8024 213.586 70.6959 213.486 70.5228L212.369 68.5876C212.267 68.4146 212.266 68.2005 212.366 68.0266C212.466 67.8527 212.652 67.7457 212.852 67.7461C213.053 67.7465 213.238 67.8544 213.337 68.0287L214.454 69.964C214.554 70.1368 214.554 70.3497 214.454 70.5226C214.355 70.6954 214.17 70.802 213.971 70.8022Z" fill="#E47E25"/>
<path d="M217.242 67.5297C217.144 67.5297 217.048 67.5038 216.963 67.4548L215.028 66.3371C214.853 66.238 214.746 66.0531 214.745 65.8525C214.745 65.652 214.852 65.4666 215.026 65.3667C215.2 65.2668 215.414 65.2678 215.587 65.3692L217.522 66.4869C217.741 66.6134 217.848 66.8712 217.782 67.1155C217.717 67.3598 217.495 67.5297 217.242 67.5297Z" fill="#E47E25"/>
<path d="M218.441 63.0591H216.205C215.897 63.0591 215.646 62.8089 215.646 62.5002C215.646 62.1916 215.897 61.9414 216.205 61.9414H218.441C218.749 61.9414 218.999 62.1916 218.999 62.5002C218.999 62.8089 218.749 63.0591 218.441 63.0591Z" fill="#E47E25"/>
<path d="M215.308 59.7059C215.055 59.7059 214.834 59.5361 214.768 59.2917C214.703 59.0474 214.809 58.7896 215.028 58.6632L216.964 57.5455C217.137 57.4441 217.351 57.4431 217.525 57.543C217.699 57.6429 217.806 57.8283 217.805 58.0288C217.805 58.2293 217.697 58.4143 217.523 58.5134L215.587 59.6311C215.502 59.6801 215.406 59.7059 215.308 59.7059Z" fill="#E47E25"/>
<path d="M212.853 57.251C212.654 57.2507 212.469 57.1442 212.37 56.9713C212.27 56.7984 212.27 56.5855 212.37 56.4127L213.487 54.4775C213.587 54.3031 213.772 54.1953 213.972 54.1948C214.173 54.1944 214.358 54.3014 214.458 54.4753C214.558 54.6492 214.557 54.8633 214.455 55.0363L213.338 56.9715C213.238 57.1446 213.053 57.2511 212.853 57.251Z" fill="#E47E25"/>
<path d="M61.4922 131.206C65.1958 131.206 68.1982 128.204 68.1982 124.5C68.1982 120.797 65.1958 117.794 61.4922 117.794C57.7885 117.794 54.7861 120.797 54.7861 124.5C54.7861 128.204 57.7885 131.206 61.4922 131.206Z" fill="#F19B1F"/>
<path d="M62.6086 121.706C62.9173 121.706 63.1675 121.456 63.1675 121.147C63.1675 120.839 62.9173 120.588 62.6086 120.588C62.3 120.588 62.0498 120.839 62.0498 121.147C62.0498 121.456 62.3 121.706 62.6086 121.706Z" fill="#F8E9AF"/>
<path d="M59.2561 127.294C59.5647 127.294 59.8149 127.044 59.8149 126.736C59.8149 126.427 59.5647 126.177 59.2561 126.177C58.9475 126.177 58.6973 126.427 58.6973 126.736C58.6973 127.044 58.9475 127.294 59.2561 127.294Z" fill="#F8E9AF"/>
<path d="M59.2563 123.941C59.8736 123.941 60.374 123.441 60.374 122.824C60.374 122.206 59.8736 121.706 59.2563 121.706C58.6391 121.706 58.1387 122.206 58.1387 122.824C58.1387 123.441 58.6391 123.941 59.2563 123.941Z" fill="#F8E9AF"/>
<path d="M63.7263 127.853C64.6522 127.853 65.4028 127.103 65.4028 126.177C65.4028 125.251 64.6522 124.5 63.7263 124.5C62.8004 124.5 62.0498 125.251 62.0498 126.177C62.0498 127.103 62.8004 127.853 63.7263 127.853Z" fill="#F8E9AF"/>
<path d="M61.4993 118.353C61.1906 118.353 60.9404 118.103 60.9404 117.794V115.559C60.9404 115.25 61.1906 115 61.4993 115C61.8079 115 62.0581 115.25 62.0581 115.559V117.794C62.0581 118.103 61.8079 118.353 61.4993 118.353Z" fill="#E47E25"/>
<path d="M58.1477 119.251C57.9478 119.251 57.7631 119.145 57.6632 118.972L56.5455 117.036C56.4441 116.863 56.4431 116.649 56.543 116.475C56.6429 116.301 56.8283 116.194 57.0288 116.195C57.2293 116.195 57.4143 116.303 57.5134 116.477L58.6311 118.413C58.7308 118.586 58.7309 118.798 58.6312 118.971C58.5315 119.144 58.3472 119.251 58.1477 119.251Z" fill="#E47E25"/>
<path d="M55.6916 121.706C55.5935 121.706 55.4972 121.68 55.4122 121.631L53.477 120.513C53.3026 120.414 53.1948 120.229 53.1943 120.029C53.1939 119.828 53.3009 119.643 53.4748 119.543C53.6487 119.443 53.8628 119.444 54.0358 119.545L55.971 120.663C56.1901 120.79 56.2969 121.047 56.2314 121.292C56.1659 121.536 55.9445 121.706 55.6916 121.706Z" fill="#E47E25"/>
<path d="M54.7942 125.059H52.5588C52.2502 125.059 52 124.809 52 124.5C52 124.192 52.2502 123.941 52.5588 123.941H54.7942C55.1028 123.941 55.353 124.192 55.353 124.5C55.353 124.809 55.1028 125.059 54.7942 125.059Z" fill="#E47E25"/>
<path d="M53.7571 129.53C53.5042 129.53 53.2828 129.36 53.2173 129.115C53.1519 128.871 53.2587 128.613 53.4777 128.487L55.4129 127.369C55.5859 127.268 55.8 127.267 55.9739 127.367C56.1478 127.467 56.2548 127.652 56.2544 127.853C56.254 128.053 56.1461 128.238 55.9718 128.337L54.0365 129.455C53.9516 129.504 53.8552 129.53 53.7571 129.53Z" fill="#E47E25"/>
<path d="M57.029 132.802C56.8294 132.802 56.6451 132.695 56.5454 132.523C56.4457 132.35 56.4458 132.137 56.5456 131.964L57.6632 130.029C57.7624 129.854 57.9473 129.747 58.1478 129.746C58.3484 129.746 58.5338 129.853 58.6336 130.027C58.7335 130.2 58.7326 130.415 58.6311 130.588L57.5135 132.523C57.4136 132.696 57.2288 132.802 57.029 132.802Z" fill="#E47E25"/>
<path d="M61.4993 134C61.1906 134 60.9404 133.75 60.9404 133.442V131.206C60.9404 130.898 61.1906 130.647 61.4993 130.647C61.8079 130.647 62.0581 130.898 62.0581 131.206V133.442C62.0581 133.75 61.8079 134 61.4993 134Z" fill="#E47E25"/>
<path d="M65.9709 132.802C65.7711 132.802 65.5863 132.696 65.4864 132.523L64.3687 130.588C64.2673 130.415 64.2664 130.2 64.3662 130.027C64.4661 129.853 64.6515 129.746 64.8521 129.746C65.0526 129.747 65.2375 129.854 65.3366 130.029L66.4543 131.964C66.5541 132.137 66.5541 132.35 66.4544 132.523C66.3548 132.695 66.1705 132.802 65.9709 132.802Z" fill="#E47E25"/>
<path d="M69.2424 129.53C69.1443 129.53 69.0479 129.504 68.963 129.455L67.0277 128.337C66.8534 128.238 66.7456 128.053 66.7451 127.853C66.7447 127.652 66.8517 127.467 67.0256 127.367C67.1995 127.267 67.4136 127.268 67.5866 127.369L69.5218 128.487C69.7409 128.613 69.8476 128.871 69.7822 129.115C69.7167 129.36 69.4953 129.53 69.2424 129.53Z" fill="#E47E25"/>
<path d="M70.4407 125.059H68.2053C67.8967 125.059 67.6465 124.809 67.6465 124.5C67.6465 124.192 67.8967 123.941 68.2053 123.941H70.4407C70.7493 123.941 70.9995 124.192 70.9995 124.5C70.9995 124.809 70.7493 125.059 70.4407 125.059Z" fill="#E47E25"/>
<path d="M67.3079 121.706C67.055 121.706 66.8336 121.536 66.7681 121.292C66.7027 121.047 66.8094 120.79 67.0285 120.663L68.9637 119.545C69.1367 119.444 69.3508 119.443 69.5247 119.543C69.6986 119.643 69.8056 119.828 69.8052 120.029C69.8047 120.229 69.6969 120.414 69.5225 120.513L67.5873 121.631C67.5023 121.68 67.406 121.706 67.3079 121.706Z" fill="#E47E25"/>
<path d="M64.8532 119.251C64.6536 119.251 64.4693 119.144 64.3696 118.971C64.27 118.798 64.27 118.586 64.3698 118.413L65.4875 116.477C65.5866 116.303 65.7715 116.195 65.972 116.195C66.1726 116.194 66.358 116.301 66.4579 116.475C66.5577 116.649 66.5568 116.863 66.4554 117.036L65.3377 118.972C65.2378 119.145 65.053 119.251 64.8532 119.251Z" fill="#E47E25"/>
<path d="M253.487 157.029C258.75 157.029 263.017 152.763 263.017 147.5C263.017 142.237 258.75 137.971 253.487 137.971C248.224 137.971 243.958 142.237 243.958 147.5C243.958 152.763 248.224 157.029 253.487 157.029Z" fill="#F19B1F"/>
<path d="M255.075 143.529C255.514 143.529 255.869 143.174 255.869 142.735C255.869 142.297 255.514 141.941 255.075 141.941C254.637 141.941 254.281 142.297 254.281 142.735C254.281 143.174 254.637 143.529 255.075 143.529Z" fill="#F8E9AF"/>
<path d="M250.312 151.471C250.75 151.471 251.106 151.115 251.106 150.676C251.106 150.238 250.75 149.882 250.312 149.882C249.873 149.882 249.518 150.238 249.518 150.676C249.518 151.115 249.873 151.471 250.312 151.471Z" fill="#F8E9AF"/>
<path d="M250.31 146.706C251.187 146.706 251.898 145.995 251.898 145.118C251.898 144.24 251.187 143.529 250.31 143.529C249.433 143.529 248.722 144.24 248.722 145.118C248.722 145.995 249.433 146.706 250.31 146.706Z" fill="#F8E9AF"/>
<path d="M256.664 152.265C257.979 152.265 259.046 151.198 259.046 149.882C259.046 148.567 257.979 147.5 256.664 147.5C255.348 147.5 254.281 148.567 254.281 149.882C254.281 151.198 255.348 152.265 256.664 152.265Z" fill="#F8E9AF"/>
<path d="M253.5 138.765C253.062 138.765 252.706 138.409 252.706 137.971V134.794C252.706 134.356 253.062 134 253.5 134C253.939 134 254.294 134.356 254.294 134.794V137.971C254.294 138.409 253.939 138.765 253.5 138.765Z" fill="#E47E25"/>
<path d="M248.736 140.041C248.452 140.041 248.19 139.89 248.048 139.644L246.46 136.894C246.316 136.648 246.314 136.344 246.456 136.097C246.598 135.849 246.861 135.697 247.146 135.698C247.431 135.699 247.694 135.852 247.835 136.1L249.423 138.85C249.565 139.095 249.565 139.398 249.423 139.643C249.282 139.889 249.02 140.041 248.736 140.041Z" fill="#E47E25"/>
<path d="M245.246 143.529C245.107 143.529 244.97 143.493 244.849 143.423L242.099 141.835C241.851 141.694 241.698 141.431 241.697 141.146C241.697 140.861 241.849 140.598 242.096 140.456C242.343 140.314 242.647 140.315 242.893 140.459L245.643 142.048C245.954 142.227 246.106 142.594 246.013 142.941C245.92 143.288 245.605 143.529 245.246 143.529Z" fill="#E47E25"/>
<path d="M243.971 148.294H240.794C240.356 148.294 240 147.939 240 147.5C240 147.061 240.356 146.706 240.794 146.706H243.971C244.409 146.706 244.765 147.061 244.765 147.5C244.765 147.939 244.409 148.294 243.971 148.294Z" fill="#E47E25"/>
<path d="M242.497 154.647C242.138 154.647 241.823 154.406 241.73 154.059C241.637 153.711 241.789 153.345 242.1 153.165L244.85 151.577C245.096 151.433 245.4 151.432 245.647 151.574C245.895 151.715 246.047 151.979 246.046 152.264C246.045 152.549 245.892 152.812 245.644 152.952L242.894 154.541C242.774 154.61 242.637 154.647 242.497 154.647Z" fill="#E47E25"/>
<path d="M247.147 159.297C246.863 159.297 246.601 159.146 246.46 158.9C246.318 158.654 246.318 158.352 246.46 158.106L248.048 155.356C248.189 155.108 248.452 154.955 248.737 154.955C249.022 154.954 249.285 155.106 249.427 155.353C249.569 155.6 249.568 155.904 249.424 156.15L247.835 158.9C247.693 159.146 247.431 159.298 247.147 159.297Z" fill="#E47E25"/>
<path d="M253.5 161C253.062 161 252.706 160.645 252.706 160.206V157.029C252.706 156.591 253.062 156.235 253.5 156.235C253.939 156.235 254.294 156.591 254.294 157.029V160.206C254.294 160.645 253.939 161 253.5 161Z" fill="#E47E25"/>
<path d="M259.852 159.297C259.568 159.298 259.305 159.146 259.163 158.9L257.575 156.15C257.431 155.904 257.429 155.6 257.571 155.353C257.713 155.106 257.977 154.954 258.262 154.955C258.547 154.955 258.809 155.108 258.95 155.356L260.539 158.106C260.68 158.352 260.68 158.654 260.539 158.9C260.397 159.146 260.135 159.297 259.852 159.297Z" fill="#E47E25"/>
<path d="M264.502 154.647C264.362 154.647 264.225 154.61 264.105 154.541L261.355 152.952C261.107 152.812 260.954 152.549 260.953 152.264C260.953 151.979 261.105 151.715 261.352 151.574C261.599 151.432 261.903 151.433 262.149 151.577L264.899 153.165C265.21 153.345 265.362 153.711 265.269 154.059C265.176 154.406 264.861 154.647 264.502 154.647Z" fill="#E47E25"/>
<path d="M266.205 148.294H263.028C262.59 148.294 262.234 147.939 262.234 147.5C262.234 147.061 262.59 146.706 263.028 146.706H266.205C266.644 146.706 266.999 147.061 266.999 147.5C266.999 147.939 266.644 148.294 266.205 148.294Z" fill="#E47E25"/>
<path d="M261.754 143.529C261.395 143.529 261.08 143.288 260.987 142.941C260.894 142.594 261.046 142.227 261.357 142.048L264.107 140.459C264.353 140.315 264.657 140.314 264.904 140.456C265.151 140.598 265.303 140.861 265.303 141.146C265.302 141.431 265.149 141.694 264.901 141.835L262.151 143.423C262.03 143.493 261.894 143.529 261.754 143.529Z" fill="#E47E25"/>
<path d="M258.264 140.041C257.98 140.041 257.719 139.889 257.577 139.643C257.435 139.398 257.435 139.095 257.577 138.85L259.165 136.1C259.306 135.852 259.569 135.699 259.854 135.698C260.139 135.697 260.402 135.849 260.544 136.097C260.686 136.344 260.685 136.648 260.541 136.894L258.953 139.644C258.811 139.89 258.548 140.041 258.264 140.041Z" fill="#E47E25"/>
<path d="M30.4735 233.031C42.3643 233.031 52.0036 223.392 52.0036 211.501C52.0036 199.61 42.3643 189.971 30.4735 189.971C18.5827 189.971 8.94336 199.61 8.94336 211.501C8.94336 223.392 18.5827 233.031 30.4735 233.031Z" fill="#F19B1F"/>
<path d="M34.0598 202.53C35.0507 202.53 35.854 201.727 35.854 200.736C35.854 199.745 35.0507 198.942 34.0598 198.942C33.0689 198.942 32.2656 199.745 32.2656 200.736C32.2656 201.727 33.0689 202.53 34.0598 202.53Z" fill="#F8E9AF"/>
<path d="M23.2971 220.472C24.288 220.472 25.0913 219.669 25.0913 218.678C25.0913 217.687 24.288 216.884 23.2971 216.884C22.3062 216.884 21.5029 217.687 21.5029 218.678C21.5029 219.669 22.3062 220.472 23.2971 220.472Z" fill="#F8E9AF"/>
<path d="M23.2944 209.707C25.2762 209.707 26.8828 208.1 26.8828 206.119C26.8828 204.137 25.2762 202.53 23.2944 202.53C21.3126 202.53 19.7061 204.137 19.7061 206.119C19.7061 208.1 21.3126 209.707 23.2944 209.707Z" fill="#F8E9AF"/>
<path d="M37.6482 222.266C40.6209 222.266 43.0307 219.856 43.0307 216.884C43.0307 213.911 40.6209 211.501 37.6482 211.501C34.6755 211.501 32.2656 213.911 32.2656 216.884C32.2656 219.856 34.6755 222.266 37.6482 222.266Z" fill="#F8E9AF"/>
<path d="M30.5012 191.765C29.5103 191.765 28.707 190.962 28.707 189.971V182.794C28.707 181.803 29.5103 181 30.5012 181C31.4921 181 32.2954 181.803 32.2954 182.794V189.971C32.2954 190.962 31.4921 191.765 30.5012 191.765Z" fill="#E47E25"/>
<path d="M19.7389 194.648C19.0973 194.649 18.5042 194.307 18.1834 193.751L14.595 187.538C14.2694 186.983 14.2663 186.295 14.587 185.737C14.9077 185.179 15.5029 184.835 16.1468 184.836C16.7906 184.838 17.3843 185.184 17.7025 185.744L21.2909 191.957C21.6112 192.512 21.6114 193.195 21.2913 193.75C20.9713 194.305 20.3796 194.648 19.7389 194.648Z" fill="#E47E25"/>
<path d="M11.8527 202.53C11.5377 202.53 11.2283 202.447 10.9556 202.29L4.74236 198.701C4.18266 198.383 3.83638 197.789 3.83497 197.146C3.83355 196.502 4.17722 195.906 4.73551 195.586C5.2938 195.265 5.98111 195.268 6.53653 195.594L12.7498 199.182C13.453 199.588 13.7958 200.416 13.5856 201.2C13.3755 201.985 12.6647 202.53 11.8527 202.53Z" fill="#E47E25"/>
<path d="M8.97089 213.295H1.79418C0.803281 213.295 0 212.492 0 211.501C0 210.51 0.803281 209.707 1.79418 209.707H8.97089C9.96179 209.707 10.7651 210.51 10.7651 211.501C10.7651 212.492 9.96179 213.295 8.97089 213.295Z" fill="#E47E25"/>
<path d="M5.64192 227.649C4.82989 227.649 4.11912 227.103 3.90896 226.319C3.69879 225.535 4.04162 224.707 4.74483 224.301L10.9581 220.712C11.5135 220.387 12.2008 220.384 12.7591 220.704C13.3174 221.025 13.6611 221.62 13.6596 222.264C13.6582 222.908 13.3119 223.502 12.7523 223.82L6.53901 227.408C6.26626 227.566 5.95687 227.649 5.64192 227.649Z" fill="#E47E25"/>
<path d="M16.1468 238.155C15.5062 238.155 14.9145 237.813 14.5944 237.258C14.2744 236.703 14.2745 236.019 14.5949 235.464L18.1832 229.251C18.5014 228.691 19.0952 228.345 19.739 228.344C20.3828 228.342 20.9781 228.686 21.2987 229.244C21.6194 229.802 21.6164 230.49 21.2907 231.045L17.7024 237.258C17.3816 237.814 16.7885 238.156 16.1468 238.155Z" fill="#E47E25"/>
<path d="M30.5012 242.002C29.5103 242.002 28.707 241.199 28.707 240.208V233.031C28.707 232.04 29.5103 231.237 30.5012 231.237C31.4921 231.237 32.2954 232.04 32.2954 233.031V240.208C32.2954 241.199 31.4921 242.002 30.5012 242.002Z" fill="#E47E25"/>
<path d="M44.8512 238.155C44.2096 238.156 43.6165 237.814 43.2957 237.258L39.7073 231.045C39.3817 230.49 39.3786 229.802 39.6993 229.244C40.02 228.686 40.6152 228.342 41.2591 228.344C41.9029 228.345 42.4966 228.691 42.8148 229.251L46.4032 235.464C46.7235 236.019 46.7237 236.703 46.4036 237.258C46.0836 237.813 45.4919 238.155 44.8512 238.155Z" fill="#E47E25"/>
<path d="M55.3576 227.649C55.0426 227.649 54.7332 227.566 54.4605 227.408L48.2472 223.82C47.6875 223.502 47.3413 222.908 47.3398 222.264C47.3384 221.62 47.6821 221.025 48.2404 220.704C48.7987 220.384 49.486 220.387 50.0414 220.712L56.2547 224.301C56.9579 224.707 57.3007 225.535 57.0905 226.319C56.8804 227.103 56.1696 227.649 55.3576 227.649Z" fill="#E47E25"/>
<path d="M59.2062 213.295H52.0295C51.0386 213.295 50.2354 212.492 50.2354 211.501C50.2354 210.51 51.0386 209.707 52.0295 209.707H59.2062C60.1971 209.707 61.0004 210.51 61.0004 211.501C61.0004 212.492 60.1971 213.295 59.2062 213.295Z" fill="#E47E25"/>
<path d="M49.1497 202.53C48.3377 202.53 47.6269 201.985 47.4168 201.2C47.2066 200.416 47.5494 199.588 48.2526 199.182L54.4659 195.594C55.0213 195.268 55.7086 195.265 56.2669 195.586C56.8252 195.906 57.1689 196.502 57.1675 197.146C57.166 197.789 56.8198 198.383 56.2601 198.701L50.0468 202.29C49.7741 202.447 49.4647 202.53 49.1497 202.53Z" fill="#E47E25"/>
<path d="M41.265 194.648C40.6243 194.648 40.0326 194.305 39.7126 193.75C39.3925 193.195 39.3927 192.512 39.713 191.957L43.3014 185.744C43.6196 185.184 44.2133 184.838 44.8572 184.836C45.501 184.835 46.0962 185.179 46.4169 185.737C46.7376 186.295 46.7345 186.983 46.4089 187.538L42.8206 193.751C42.4997 194.307 41.9066 194.649 41.265 194.648Z" fill="#E47E25"/>
<defs>
<filter id="filter0_d" x="0" y="66" width="325.311" height="220.131" filterUnits="userSpaceOnUse" color-interpolation-filters="sRGB">
<feFlood flood-opacity="0" result="BackgroundImageFix"/>
<feColorMatrix in="SourceAlpha" type="matrix" values="0 0 0 0 0 0 0 0 0 0 0 0 0 0 0 0 0 0 127 0"/>
<feOffset dy="4"/>
<feGaussianBlur stdDeviation="5"/>
<feColorMatrix type="matrix" values="0 0 0 0 0 0 0 0 0 0 0 0 0 0 0 0 0 0 0.05 0"/>
<feBlend mode="normal" in2="BackgroundImageFix" result="effect1_dropShadow"/>
<feBlend mode="normal" in="SourceGraphic" in2="effect1_dropShadow" result="shape"/>
</filter>
</defs>
</svg>
